<?xml version="1.0" encoding="utf-8"?>
<!-- Generator: Adobe Illustrator 18.0.0, SVG Export Plug-In . SVG Version: 6.00 Build 0)  -->
<!DOCTYPE svg PUBLIC "-//W3C//DTD SVG 1.1//EN" "http://www.w3.org/Graphics/SVG/1.1/DTD/svg11.dtd">
<svg version="1.1" id="Layer_1" xmlns="http://www.w3.org/2000/svg" xmlns:xlink="http://www.w3.org/1999/xlink" x="0px" y="0px"
	 viewBox="55 0 40 40" enable-background="new 55 0 40 40" xml:space="preserve">
<path fill="#AAAAAA" d="M75,0C64,0,55,9,55,20s9,20,20,20s20-9,20-20S86,0,75,0z M87,16.4L74.1,29.3c-0.5,0.5-1.2,0.9-2,0.9
	c-0.7,0-1.5-0.3-2-0.9l-7-7c-1.1-1.1-1.1-2.9,0-4c1.1-1.1,2.9-1.1,4,0l5,5l10.8-10.8c1.1-1.1,2.9-1.1,4,0
	C88.1,13.5,88.1,15.3,87,16.4z"/>
</svg>
