<svg xmlns="http://www.w3.org/2000/svg" viewBox="0 0 32 32"><defs><style>.cls-1{fill:#7a7a7a;}</style></defs><title>Asset 1</title><g id="Layer_2" data-name="Layer 2"><g id="Layer_1-2" data-name="Layer 1"><path class="cls-1" d="M25.77,22.54h0l-6-6,6-6h0a.64.64,0,0,0,.14-.22.63.63,0,0,0-.14-.66L22.92,6.73a.63.63,0,0,0-.66-.14.64.64,0,0,0-.22.14h0l-6,6-6-6h0a.64.64,0,0,0-.22-.14.63.63,0,0,0-.66.14L6.23,9.58a.63.63,0,0,0-.14.66.64.64,0,0,0,.14.22h0l6,6-6,6h0a.64.64,0,0,0-.14.22.63.63,0,0,0,.14.66l2.85,2.85a.63.63,0,0,0,.66.14.64.64,0,0,0,.22-.14h0l6-6,6,6h0a.64.64,0,0,0,.22.14.63.63,0,0,0,.66-.14l2.85-2.85a.63.63,0,0,0,.14-.66A.64.64,0,0,0,25.77,22.54ZM32,16A16,16,0,1,1,16,0,16,16,0,0,1,32,16Z"/></g></g></svg>